<svg width="109" height="27" fill="none" xmlns="http://www.w3.org/2000/svg"><path d="M98.03 1.415l-2.814 11.163.071.033c.267-.356.508-.719.797-1.062 1.283-1.576 2.826-2.778 4.896-3.156 3.156-.578 6.569.626 7.424 4.793.927 4.506-1.378 9.915-5.296 12.407-1.935 1.232-4.043 1.705-6.305 1.157-1.99-.48-3.113-1.852-3.596-3.755-.175-.688-.225-1.409-.337-2.13-.051.058-.125.126-.186.206-1.27 1.704-2.552 3.396-3.788 5.12-.292.406-.597.589-1.082.516-.12-.017-.254 0-.414-.02l.62-2.503L93.606 1.88c.089-.357.208-.5.62-.5 1.246.057 2.496.035 3.803.035zm6.157 13.015c-.041-.448-.059-.88-.125-1.309-.401-2.625-2.752-3.892-5.218-2.81-1.089.475-1.899 1.278-2.587 2.21a13.922 13.922 0 00-2.417 5.896c-.239 1.327-.35 2.664 0 3.99.662 2.503 3.024 3.504 5.307 2.185a6.334 6.334 0 001.5-1.191c2.321-2.54 3.301-5.617 3.54-8.96v-.01zM43.945 26.61l1.298-5.109 4.014-15.748c.343-1.337.678-2.678 1.031-4.005.033-.123.178-.308.274-.31 1.346-.02 2.694-.015 4.096-.015-.957 3.754-1.904 7.458-2.877 11.263.455-.606.818-1.144 1.234-1.64 2.032-2.435 5.18-3.381 8.093-2.46 1.947.616 3.138 2.113 3.344 4.162.14 1.392-.178 2.719-.523 4.045-.835 3.184-1.662 6.367-2.481 9.55-.02.077-.051.152-.084.25h-4.23c.152-.611.3-1.204.45-1.798.814-3.204 1.637-6.402 2.434-9.609a5.63 5.63 0 00.023-2.896 2.823 2.823 0 00-.98-1.543 2.895 2.895 0 00-1.732-.634c-1.9-.14-3.3.728-4.448 2.117-1.232 1.502-1.831 3.28-2.286 5.122a812.934 812.934 0 01-2.285 8.938c-.03.122-.178.307-.274.307-1.34.018-2.687.013-4.09.013zm37.859.1c-.409-1.842-.813-3.647-1.242-5.574-.114.223-.185.353-.254.485-1.092 2.183-2.595 3.973-4.977 4.849-1.899.698-3.834.75-5.702-.106-1.87-.856-2.593-2.405-2.69-4.325-.065-1.291.293-2.52.607-3.754l2.372-9.291c.048-.195.066-.386.368-.38 1.27.014 2.54 0 3.809 0 .071.007.142.02.21.037l-.494 1.925c-.8 3.108-1.62 6.212-2.385 9.328a7.796 7.796 0 00-.185 2.173c.081 1.972 1.549 3.191 3.555 3.033 1.58-.122 2.757-.933 3.72-2.097 1.221-1.472 1.843-3.209 2.285-5.031.741-3.024 1.523-6.04 2.285-9.058.048-.19.089-.32.333-.318h3.809c.063.008.126.022.187.042-.203.826-.398 1.637-.601 2.448-1.245 4.995-2.49 9.988-3.738 14.98-.19.751-.04.596-.79.616l-.482.018zM12.325 2.476c-2.126 0-3.189.542-3.187 1.627V22.97c0 1.085 1.062 1.627 3.187 1.625v2.002H.44v-2.002c2.149 0 3.223-.542 3.223-1.625V4.103C3.664 3.02 2.59 2.478.44 2.476V.394h11.884v2.082zM30.271.394a24.25 24.25 0 014.193.335 8.75 8.75 0 013.245 1.201 5.782 5.782 0 012.08 2.346c.489.99.734 2.247.736 3.774.001 1.527-.244 2.82-.737 3.88a6.17 6.17 0 01-2.082 2.488 8.63 8.63 0 01-3.245 1.321 20.896 20.896 0 01-4.197.39H24.74v6.836c0 1.087 1.325 1.63 3.974 1.63v2.002H16.08v-2.002c2.123 0 3.185-.542 3.187-1.625V4.103c0-1.083-1.063-1.625-3.187-1.627V.394h14.192zm-5.53 2.966v9.876h4.903c1.933 0 3.317-.436 4.152-1.309.834-.872 1.252-2.159 1.252-3.86 0-1.486-.418-2.643-1.252-3.47-.835-.829-2.219-1.24-4.152-1.237h-4.903z" fill="#fff"/></svg>