<svg width="109" height="27" viewBox="0 0 109 27" fill="none" xmlns="http://www.w3.org/2000/svg">
<path d="M98.0293 1.41489L95.2159 12.5781L95.287 12.6106C95.5536 12.2552 95.7949 11.8923 96.0843 11.5494C97.3666 9.97252 98.9104 8.77109 100.98 8.39315C104.136 7.81496 107.549 9.01889 108.404 13.1863C109.331 17.6916 107.026 23.1005 103.108 25.5935C101.173 26.8249 99.0653 27.298 96.8029 26.7499C94.8122 26.2693 93.6899 24.8977 93.2075 22.9954C93.0322 22.3071 92.9815 21.5863 92.8697 20.8654C92.819 20.923 92.7453 20.9905 92.6844 21.0706C91.4148 22.7752 90.1325 24.4672 88.896 26.1917C88.604 26.5972 88.2993 26.7799 87.8143 26.7073C87.6949 26.6898 87.5604 26.7073 87.4004 26.6873C87.6111 25.8388 87.8143 25.0178 88.0199 24.1843C89.882 16.7505 91.7441 9.31591 93.6061 1.88044C93.695 1.52252 93.8143 1.37985 94.2257 1.37985C95.4724 1.43742 96.7217 1.41489 98.0293 1.41489ZM104.187 14.4303C104.146 13.9823 104.128 13.5492 104.062 13.1212C103.661 10.4956 101.31 9.22914 98.8444 10.3104C97.7551 10.786 96.9451 11.5894 96.257 12.5205C95.004 14.2779 94.177 16.2954 93.8397 18.4175C93.601 19.7441 93.4893 21.0807 93.8397 22.4072C94.5024 24.9102 96.8638 25.9114 99.1466 24.5923C99.7054 24.2728 100.211 23.871 100.647 23.4009C102.968 20.8604 103.948 17.7843 104.187 14.4403V14.4303Z" fill="white"/>
<path d="M43.9453 26.6099L45.2428 21.5014L49.2572 5.75277C49.6 4.41619 49.9352 3.0746 50.2881 1.74803C50.3212 1.62538 50.4659 1.44017 50.5624 1.43766C51.9081 1.41764 53.2564 1.42264 54.658 1.42264C53.7008 5.17709 52.7537 8.88147 51.7812 12.686C52.2357 12.0803 52.5988 11.5421 53.0152 11.0465C55.0465 8.61115 58.1951 7.66503 61.1075 8.58612C63.055 9.20185 64.2459 10.6986 64.4516 12.7485C64.5912 14.1402 64.2738 15.4668 63.9285 16.7933C63.094 19.9771 62.2671 23.16 61.4478 26.3421C61.4274 26.4197 61.397 26.4948 61.364 26.5924H57.1337C57.2861 25.9817 57.4333 25.3885 57.5832 24.7953C58.3982 21.5915 59.2209 18.3927 60.0182 15.1864C60.2783 14.2391 60.2862 13.2417 60.0411 12.2905C59.8958 11.6836 59.5511 11.1411 59.0607 10.7473C58.5702 10.3535 57.9615 10.1305 57.3292 10.1129C55.4299 9.97276 54.0283 10.8413 52.8806 12.2304C51.6491 13.7322 51.0499 15.5093 50.5954 17.3515C49.8506 20.335 49.0888 23.3144 48.3101 26.2896C48.2797 26.4122 48.1324 26.5974 48.0359 26.5974C46.6952 26.6149 45.3495 26.6099 43.9453 26.6099Z" fill="white"/>
<path d="M81.8039 26.7098C81.395 24.8676 80.9913 23.063 80.5622 21.1357C80.4479 21.3585 80.3768 21.4886 80.3083 21.6213C79.2164 23.8038 77.7133 25.5935 75.3315 26.4695C73.4322 27.1678 71.4974 27.2204 69.6286 26.3644C67.7597 25.5084 67.0361 23.959 66.9396 22.0393C66.8736 20.7477 67.2316 19.5188 67.5464 18.2848C68.337 15.1895 69.1275 12.0925 69.918 8.99383C69.9663 8.7986 69.984 8.60837 70.2862 8.61338C71.5558 8.6284 72.8254 8.61338 74.0949 8.61338C74.166 8.62078 74.2365 8.63333 74.3057 8.65092C74.1381 9.3042 73.9756 9.93995 73.8106 10.5757C73.0107 13.6844 72.1906 16.788 71.4263 19.9042C71.263 20.6165 71.2006 21.3477 71.2409 22.0768C71.3222 24.0491 72.7898 25.2681 74.7958 25.1104C76.3751 24.9878 77.5533 24.1768 78.5156 23.0129C79.737 21.5412 80.3591 19.8041 80.8009 17.982C81.5423 14.9584 82.3244 11.9423 83.0861 8.92375C83.1344 8.73352 83.175 8.60337 83.4188 8.60587C84.6883 8.60587 85.9579 8.60587 87.2275 8.60587C87.2914 8.61415 87.3543 8.6284 87.4154 8.64842C87.2123 9.4744 87.0168 10.2854 86.8136 11.0963C85.5694 16.0906 84.3235 21.084 83.076 26.0765C82.8855 26.8274 83.0354 26.6722 82.2863 26.6923L81.8039 26.7098Z" fill="white"/>
<path d="M12.3247 2.47614C10.1986 2.47614 9.13634 3.01845 9.13804 4.10306V22.9704C9.13804 24.055 10.2003 24.5965 12.3247 24.5948V26.5972H0.441406V24.5948C2.58954 24.5948 3.6636 24.0533 3.6636 22.9704V4.10306C3.6636 3.02012 2.58954 2.47781 0.441406 2.47614V0.393677H12.3247V2.47614Z" fill="white"/>
<path d="M30.2715 0.393596C31.6761 0.383796 33.0789 0.496029 34.4636 0.728992C35.6163 0.91009 36.72 1.31873 37.7087 1.93041C38.6073 2.50894 39.3269 3.32041 39.7882 4.27569C40.2775 5.26519 40.5229 6.52335 40.5246 8.05015C40.5263 9.57696 40.2808 10.8702 39.7882 11.9297C39.3311 12.9269 38.6124 13.7857 37.7061 14.4177C36.7287 15.0744 35.6238 15.5244 34.4611 15.7392C33.0792 16.0105 31.6728 16.1413 30.2638 16.1297H24.7412V22.9653C24.7412 24.0516 26.0658 24.5947 28.715 24.5947V26.5971H16.0801V24.5947C18.2028 24.5947 19.265 24.0532 19.2667 22.9703V4.10298C19.2667 3.02004 18.2045 2.47773 16.0801 2.47606V0.393596H30.2715ZM24.7412 3.3596V13.2363H29.6443C31.5774 13.2363 32.9613 12.7999 33.7958 11.9272C34.6304 11.0545 35.0476 9.76802 35.0476 8.06767C35.0476 6.58091 34.6304 5.42371 33.7958 4.59607C32.9613 3.76842 31.5774 3.35627 29.6443 3.3596H24.7412Z" fill="white"/>
</svg>
